<svg width="3" height="10" viewBox="0 0 3 10" fill="none" xmlns="http://www.w3.org/2000/svg">
<path d="M2.05 1.4C2.05 1.89706 1.64706 2.3 1.15 2.3C0.652944 2.3 0.25 1.89706 0.25 1.4C0.25 0.902944 0.652944 0.5 1.15 0.5C1.64706 0.5 2.05 0.902944 2.05 1.4Z" fill="#252830"/>
<path d="M2.05 5C2.05 5.49706 1.64706 5.9 1.15 5.9C0.652944 5.9 0.25 5.49706 0.25 5C0.25 4.50294 0.652944 4.1 1.15 4.1C1.64706 4.1 2.05 4.50294 2.05 5Z" fill="#252830"/>
<path d="M2.05 8.6C2.05 9.09706 1.64706 9.5 1.15 9.5C0.652944 9.5 0.25 9.09706 0.25 8.6C0.25 8.10294 0.652944 7.7 1.15 7.7C1.64706 7.7 2.05 8.10294 2.05 8.6Z" fill="#252830"/>
</svg>
